<?xml version="1.0" standalone="no"?>
<!DOCTYPE svg PUBLIC "-//W3C//DTD SVG 1.1//EN" "http://www.w3.org/Graphics/SVG/1.1/DTD/svg11.dtd" >
<svg xmlns="http://www.w3.org/2000/svg">
<metadata></metadata>
<defs>
<font id="sogandregular" horiz-adv-x="1120" >
<font-face units-per-em="2048" ascent="1638" descent="-410" />
<missing-glyph horiz-adv-x="298" />
<glyph horiz-adv-x="0" />
<glyph unicode="&#xd;" horiz-adv-x="325" />
<glyph unicode=" "  horiz-adv-x="298" />
<glyph unicode="&#x09;" horiz-adv-x="298" />
<glyph unicode="&#xa0;" horiz-adv-x="298" />
<glyph unicode="!" horiz-adv-x="386" d="M-163 0l8 89l115 1261l7 74h74h385h90l-8 -89l-107 -1171l-15 -164h-460h-89zM16 164h223l17 187h-223zM48 515h222l67 745h-221z" />
<glyph unicode="&#x22;" horiz-adv-x="741" d="M332 1065q5 28 12 67.5t14 81t14 81t13 67.5h168q-1 0 -4 -17t-8 -44.5t-11 -61t-11.5 -66.5t-10.5 -62t-8 -46h-168zM614 1065q6 28 12.5 67.5t13.5 81t14.5 81t13.5 67.5h170q-1 0 -4 -17t-8 -44.5t-11 -61t-11.5 -66.5t-11 -62t-8.5 -46h-170z" />
<glyph unicode="$" horiz-adv-x="1217" d="M152 0l28 184h375l76 430h-43q-90 0 -160 39t-104 113q-23 40 -30 88.5t-2 98.5t20.5 100t39.5 94q38 69 93 119.5t118 81.5q37 17 78.5 25.5t83.5 8.5h43l51 297h168l-51 -297h268l-33 -184h-268l-72 -399h41q65 0 122 -19.5t98 -56.5q40 -35 62 -81.5t30 -98.5 q12 -81 -5 -156.5t-55 -144.5q-68 -113 -168.5 -177.5t-218.5 -64.5h-45l-41 -225h-168l41 225h-372zM563 986.5q-7 -44.5 2 -79.5q8 -45 35 -70.5t66 -33.5l67 389q-46 -11 -82.5 -44t-58.5 -75t-29 -86.5zM725 188q53 11 96 44.5t66 84.5q25 44 30.5 90.5t-2.5 88.5 q-11 46 -41 75.5t-75 38.5z" />
<glyph unicode="%" horiz-adv-x="1022" d="M0 0l524 1424h465l-524 -1424h-465zM117 1176q0 31 11.5 58t32 47t47.5 31.5t58 11.5t58 -11.5t47 -31.5t32 -47t12 -58t-12 -58t-32 -47.5t-47 -32t-58 -11.5t-58 11.5t-47.5 32t-32 47.5t-11.5 58zM234 164h119l402 1096h-117zM575 250q0 30 11.5 57t31.5 47.5t47 32 t58 11.5t58 -11.5t47.5 -32t32 -47.5t11.5 -57q0 -31 -11.5 -58t-32 -47.5t-47.5 -32t-58 -11.5t-58 11.5t-47 32t-31.5 47.5t-11.5 58z" />
<glyph unicode="&#x26;" horiz-adv-x="1423" d="M210.5 235q-13.5 79 4.5 179q29 164 146.5 262.5t308.5 132.5l-117 405q-11 26 -15.5 48t3 40t30 31.5t66 22.5t110 13.5t162.5 4.5q83 0 153 -19t118.5 -58.5t70 -99.5t6.5 -142q-29 -164 -118.5 -251.5t-237.5 -115.5l139 -467l306 152l-29 -160q-12 -8 -35.5 -20.5 t-55.5 -28.5t-70 -34t-77 -36l31 -94h-147l-15 37q-65 -16 -140 -25.5t-165 -9.5q-137 -5 -227.5 21t-141 79.5t-64 132.5zM411.5 295.5q9.5 -55.5 42 -97t90.5 -64t144 -13.5q51 5 84 11t55 13t37.5 15t32.5 18l-176 488q-22 -4 -49 -10t-53 -13.5t-49 -17t-38 -21.5 q-47 -35 -77 -87t-41.5 -109t-2 -112.5zM764 1235l102 -453q86 22 144 67t87 100t28 113t-33 105.5t-95.5 78t-160.5 30.5q-11 0 -24.5 -3t-24.5 -8t-18 -13t-5 -17z" />
<glyph unicode="'" horiz-adv-x="457" d="M332 1065q5 28 12 67.5t14 81t14 81t13 67.5h168q-1 0 -4 -17t-8 -44.5t-11 -61t-11.5 -66.5t-10.5 -62t-8 -46h-168z" />
<glyph unicode="(" horiz-adv-x="462" d="M-104 630q8 91 26.5 176.5t42 165t50.5 152t51 138.5l60 162h465l-60 -162q-28 -77 -59.5 -157.5t-59 -165t-49 -172t-29.5 -178.5q-10 -103 3 -208.5t58 -215.5l67 -165h-465l-51 165q-38 125 -49 239.5t-1 225.5zM61 412.5q10 -116.5 50 -247.5h118q-40 131 -52 245.5 t-2 217.5q8 92 27.5 175.5t45 161t54.5 151.5t56 146h-120q-27 -74 -55.5 -148.5t-53 -151.5t-43 -157.5t-25.5 -165.5q-10 -110 0 -226.5z" />
<glyph unicode=")" horiz-adv-x="464" d="M-164 0l60 162q28 76 59.5 157t59 165.5t49 172t30.5 178.5q9 103 -4 208.5t-58 215.5l-67 165h465l51 -165q38 -125 49 -240t2 -225q-8 -92 -26.5 -177t-42.5 -164.5t-50.5 -152t-50.5 -138.5l-60 -162h-466zM70 162h119q27 74 55.5 148.5t53 151.5t43 157.5t26.5 165.5 q10 109 -0.5 226t-50.5 248h-117q39 -131 51 -245.5t3 -217.5q-8 -92 -28 -175.5t-45.5 -161t-54 -151.5t-55.5 -146z" />
<glyph unicode="*" horiz-adv-x="900" d="M-132 323l28 306l28 305l279 153l278 152l251 -152l250 -153l-28 -305l-28 -306l-278 -152l-279 -153l-250 153zM49 527h189l-109 -164l183 -97l106 157l78 -160l170 100l-80 164h198l18 196h-183l109 164l-175 108l-113 -168l-80 164l-168 -104l80 -164h-200z" />
<glyph unicode="+" horiz-adv-x="930" d="M-129 363l14 164l18 197l14 164h274l17 196l7 75h75h384h90l-8 -90l-16 -181h182h90l-8 -90l-33 -360l-7 -75h-74h-198l-8 -98l-16 -164h-459h-90l8 89l16 173h-272zM49 527h109h164l-15 -164l-9 -98h223l8 98l15 164h163h108l18 197h-108h-164l15 164l9 107h-221 l-9 -107l-15 -164h-164h-110z" />
<glyph unicode="," horiz-adv-x="386" d="M-144 207l32 352l15 163h459h90l-8 -89l-58 -633h-164h-222q0 78 1.5 120.5t-10 61.5t-42 22t-93.5 3zM33 371q53 0 81.5 -15t40 -42.5t11.5 -65.5t-4 -84h75l36 395h-223z" />
<glyph unicode="-" horiz-adv-x="654" d="M-129 363l47 524h164h489h164l-48 -524h-164h-488h-164zM50 527h488l18 196h-489z" />
<glyph unicode="." horiz-adv-x="386" d="M-163 0l8 89l39 426h164h222h163l-32 -352l-15 -163h-460h-89zM16 163h223l16 188h-222z" />
<glyph unicode="/" horiz-adv-x="595" d="M-219 0l524 1424h466l-525 -1424h-465zM15 164h119l402 1096h-117z" />
<glyph unicode="0" horiz-adv-x="814" d="M-117 501q10 115 48.5 218.5t105.5 182t163 124.5t221 46q126 0 214 -39t141 -111t73.5 -173t12.5 -225q-9 -140 -50 -239.5t-108 -162.5t-157.5 -92.5t-198.5 -29.5q-92 0 -179.5 34t-154.5 98t-104 157t-27 212zM50 516q-10 -90 14 -156t69.5 -110t106 -65.5 t122.5 -21.5q67 0 125.5 21t103.5 66.5t74 116.5t35 171q6 88 -11 156.5t-53 115.5t-89.5 71.5t-120.5 24.5q-87 0 -153.5 -31.5t-113 -85t-73.5 -124t-36 -149.5zM260 501q4 33 15.5 67t29.5 61t43 43.5t58 14.5q29 -2 45.5 -18.5t23.5 -44t6.5 -63t-5.5 -75.5 q-3 -21 -11 -43t-21.5 -40.5t-32.5 -30.5t-45 -12q-30 0 -52 12t-35.5 31.5t-18 45t-0.5 52.5z" />
<glyph unicode="1" horiz-adv-x="385" d="M-163 0l8 89l115 1261l7 75h75h311h163l-15 -164l-100 -1098l-15 -163h-164h-222h-163zM16 163h223l98 1098h-221z" />
<glyph unicode="2" horiz-adv-x="1047" d="M-164 0l8 89l116 1261l7 75h163h296h89l-8 -90l-7 -74l-16 -181q-4 -45 -6.5 -80t-3.5 -61q-2 -38 -2 -55.5t12 -17.5q20 0 39 26.5t35.5 67.5t28.5 90t17 94q1 5 1.5 9t0.5 8l24 264h376h172l-20 -229q-17 -183 -71 -341t-151 -274q-90 -107 -215 -168.5t-288 -61.5h-16 l-16 -188l-15 -163h-460h-90zM15 163h223l34 379q64 -27 161 -27q124 0 217 45.5t160 125.5q74 88 118 210t62 265l9 100h-220q0 -5 -2 -25t-4 -43.5t-4 -43.5t-3 -25q-10 -82 -32.5 -149t-52.5 -118q-40 -69 -90.5 -105.5t-102.5 -36.5q-34 0 -60.5 3t-47 13.5t-35.5 30 t-25 53.5q-8 26 -9.5 62.5t0 75.5t5 76.5t5.5 64.5l15 167h-221z" />
<glyph unicode="3" horiz-adv-x="1111" d="M-163 0l7 89l115 1261l7 75h165h583h527l-26 -282l-25 -280l-8 -86q-9 -96 -42 -174.5t-89 -134.5t-133.5 -86.5t-174.5 -30.5q-38 0 -77.5 12.5t-66.5 41.5q-33 -24 -80 -36.5t-101 -16.5l-17 -189l-16 -163h-385h-163zM15 163h223l21 237l15 159q26 -27 55 -35.5 t52 -8.5q68 0 118.5 24.5t85.5 67.5q10 -17 25.5 -33.5t35.5 -29.5t44.5 -21t53.5 -8q65 0 114.5 23t83.5 63t53.5 93.5t25.5 115.5l8 88l33 363h-199l-34 -378q-3 -35 -9.5 -61t-18.5 -43t-31.5 -26t-48.5 -10q-15 0 -33 10t-33 27l44 481h-199l-34 -379q-3 -35 -9.5 -60.5 t-18.5 -42.5t-31.5 -26t-48.5 -10q-14 0 -31.5 9.5t-33.5 26.5l43 482h-220z" />
<glyph unicode="4" horiz-adv-x="819" d="M-121 455q6 72 29.5 133.5t56.5 118.5q-23 59 -34 131.5t-3 163.5q11 121 54.5 202.5t114.5 130.5t167.5 69.5t213.5 20.5h474l-16 -164l-12 -136l-20 -216h-164h-220q21 -9 41.5 -23t36 -35.5t24 -52t4.5 -70.5q-5 -63 -27.5 -111t-68.5 -93h338l-15 -164l-13 -135 l-21 -225h-163h-220q-58 0 -116 4t-112 14.5t-102.5 28t-87.5 44.5q-78 54 -114 145t-25 219zM42 464q-9 -97 9 -152.5t59 -87.5q50 -40 132 -50.5t191 -10.5h19h219l18 197h-218h-75q-39 0 -70 4t-48 20q-11 11 -15.5 28t-0.5 43q5 33 20.5 62t36.5 54t46.5 47t49.5 43 q17 11 31 28.5t17 46.5q4 33 -13.5 51t-42.5 28t-50 16t-36 16q-26 23 -30.5 48.5t0.5 50.5q4 25 17 48t34.5 40.5t52.5 28t73 10.5h68h219l17 188h-289q-76 0 -143.5 -11t-120 -39.5t-86 -78.5t-41.5 -129q-5 -49 -1.5 -91t13.5 -77t25 -65t32 -55q-21 -31 -40.5 -60 t-36 -59t-27.5 -62.5t-15 -69.5z" />
<glyph unicode="5" horiz-adv-x="1045" d="M-113 581q17 183 71 340.5t151 273.5q89 107 214 168.5t288 61.5q90 0 161.5 -17.5t126 -50.5t93.5 -80.5t65 -107.5q24 -54 36.5 -116.5t17 -132.5t1.5 -146.5t-10 -158.5l-41 -452l-16 -163h-163h-221h-185q-150 0 -263.5 31.5t-191.5 101.5q-80 72 -114 182t-20 266z M49 566q-11 -114 10 -190.5t71 -121.5q53 -48 140 -69.5t206 -21.5h201l220 1l42 466q7 72 9.5 139.5t-0.5 127.5t-12.5 112t-28.5 95q-32 73 -102.5 115t-193.5 42q-124 0 -217 -45t-160 -126q-80 -96 -125.5 -231t-59.5 -293zM278 653q11 81 33.5 148.5t51.5 118.5 q40 68 91 105t103 36q34 0 60 -3t46.5 -13t35 -30t25.5 -54q12 -38 10.5 -103t-11.5 -176l-22 -247l-7 -75h-75h-120q-62 0 -107.5 18t-76.5 60q-55 73 -37 215zM436.5 569.5q1.5 -23.5 9.5 -34.5q9 -11 53 -11h46l15 173q5 45 7 79.5t4 60.5q2 38 1.5 55.5t-12.5 17.5 q-20 0 -39 -26.5t-35.5 -67.5t-28.5 -90t-17 -94q-5 -39 -3.5 -62.5z" />
<glyph unicode="6" horiz-adv-x="1034" d="M-91 932l49 493h190h359l-45 -442q-8 -77 6 -96q8 -11 53 -11h44l50 549h384h165l-15 -164l-99 -1098l-16 -163h-74h-385h-90l32 351q-68 0 -132 4.5t-124 19t-115 40.5t-103 70q-80 72 -114.5 182t-19.5 265zM72 918q-12 -114 9 -190.5t72 -122.5q53 -48 139.5 -69 t205.5 -21h111h87l-32 -352h223l98 1098h-221l-50 -549h-72h-121q-62 0 -107.5 18t-76.5 60q-29 38 -37 86.5t-3 96.5l28 288h-218z" />
<glyph unicode="7" horiz-adv-x="1048" d="M-165 0l73 809l41 452l16 164h549l-15 -164l-49 -534l-19 -213q20 0 42 20.5t42 57.5t35 88t20 112l58 633h549l-15 -164l-38 -418q-17 -183 -71.5 -340.5t-151.5 -273.5q-90 -108 -221.5 -168.5t-295.5 -60.5h-549zM14 163h385q124 0 217 45t160 126q80 96 125.5 231 t60.5 293l36 403h-222l-44 -489q-8 -82 -32 -149t-53 -118q-20 -34 -46 -62t-56 -48.5t-63 -32t-66 -11.5h-164l36 391l47 519h-223l-42 -467z" />
<glyph unicode="8" horiz-adv-x="1047" d="M-166 0l15 163l38 418q8 91 26 176.5t45.5 163.5t65.5 147t86 127q91 108 222.5 169t295.5 61h548l-73 -810l-41 -452l-15 -163h-549l15 163l49 533l19 214q-20 0 -42 -20.5t-42 -57.5t-35 -88t-21 -112l-58 -632h-549zM13 163h223l44 490q8 81 31.5 148.5t53.5 118.5 q19 34 45.5 62t56.5 48.5t63 32t66 11.5h164l-36 -392l-47 -519h222l42 467l57 631h-385q-124 0 -217.5 -45.5t-160.5 -125.5q-80 -96 -125.5 -230.5t-59.5 -293.5z" />
<glyph unicode="9" horiz-adv-x="831" d="M-78 852q10 115 58 219t124.5 182.5t176.5 124.5t214 46q127 0 211 -46.5t132.5 -126.5t64 -188.5t4.5 -231.5l-61 -668l-15 -163h-549l32 358q-223 22 -317.5 143t-74.5 351zM88 868q-13 -118 4.5 -188t65.5 -106.5t127.5 -47.5t189.5 -11h18l-33 -352h224l61 682 q8 88 -4 163.5t-43.5 131t-81 87t-116.5 31.5q-75 0 -146 -31.5t-127 -85t-93 -124.5t-46 -149zM304 783q-3 27 3 69q5 33 20.5 67t38.5 61.5t52.5 44t62.5 14.5q29 -2 40.5 -20t12.5 -50.5t-4.5 -77.5t-10.5 -99l-7 -80h-74q-46 0 -74 6.5t-42.5 22t-17.5 42.5z" />
<glyph unicode=":" horiz-adv-x="386" d="M-163 0l40 440l39 426h164h222h163l-32 -351l-32 -352l-15 -163h-460h-89zM15 163h223l17 188h-222zM47 515h223l17 187h-222z" />
<glyph unicode="=" horiz-adv-x="653" d="M-154 101l47 524l25 263h163h489h164l-39 -426l-32 -361h-165h-488h-164zM25 265h489l17 197h-488zM58 625h488l9 99h-488z" />
<glyph unicode="?" horiz-adv-x="1104" d="M338 1110l20 98q13 55 31.5 96.5t47 70t69.5 43t98 14.5h199q24 1 61.5 -1.5t75.5 -7.5t70 -12.5t45 -17.5q45 -30 69.5 -73t32 -94t-0.5 -108.5t-28 -116.5q-40 -99 -87 -166.5t-96.5 -117.5t-98.5 -89t-91.5 -81.5t-76.5 -94.5t-53 -128h-215q21 99 62 166t93 116.5 t110 90.5t115 88.5t107 109.5t86 154q22 76 22.5 122.5t-17.5 72t-54.5 35t-87.5 13.5q-15 1 -40.5 1t-55.5 -4.5t-61.5 -15.5t-59.5 -31.5t-49 -52.5t-29 -79h-213zM352 0l31 186h219l-31 -186h-219z" />
<glyph unicode="@" horiz-adv-x="1593" d="M183 107q-2 52 2.5 105.5t13.5 104.5q12 69 34.5 145t60.5 149.5t94 140t134 116.5q51 32 114 46t132 14l647 -4q47 -22 73.5 -64t43.5 -90q15 -66 14.5 -143.5t-14.5 -155.5q-9 -54 -25.5 -113t-41.5 -115t-60 -105t-82 -83q-32 -24 -69.5 -39.5t-79.5 -15.5h-420 q-63 0 -112.5 29.5t-72.5 72.5q-24 45 -29 101t5 108q9 50 31.5 99.5t64.5 93.5q19 22 44 40.5t53.5 31.5t59 20t62.5 6h416q0 11 -3 36.5t-9 52t-16 47t-25 20.5h-561q-39 0 -70 -22.5t-55 -51.5q-24 -35 -46 -77t-40.5 -89.5t-33.5 -98t-24 -102.5q-5 -25 -9.5 -67.5 t-6 -92t3 -101.5t17.5 -96t37.5 -75t64.5 -39h819l-31 -155h-741q-64 0 -117 17.5t-94.5 48t-71 71t-45.5 86.5q-17 43 -25.5 92t-10.5 101zM809 261q3 -24 12 -38q10 -14 19 -20t30 -6h252q6 0 11 1t14 7q24 17 42 43.5t30.5 56.5t20.5 60t13 53h-344q-23 0 -35 -6t-26 -19 q-11 -14 -21.5 -35.5t-15.5 -46.5q-5 -26 -2 -50z" />
<glyph unicode="A" horiz-adv-x="1378" d="M41 0l795 1382h190l311 -1382h-280l-103 440h-465l-249 -440h-199zM598 625h315l-82 374z" />
<glyph unicode="B" horiz-adv-x="1202" d="M123 0l244 1382h604q74 0 128.5 -32.5t82.5 -83.5q28 -52 35 -112q3 -24 3 -50q0 -35 -6 -70q-12 -69 -45 -130t-86 -118q35 -32 57 -73.5t32.5 -89t10.5 -99.5t-9 -104q-12 -70 -45.5 -144.5t-85.5 -135.5t-122 -100.5t-155 -39.5h-643zM418 184h293q43 0 76.5 23 t57.5 58t39.5 76.5t22.5 78.5q6 34 6 66q0 18 -2 38q-6 50 -26 86q-20 35 -50 53.5t-83 20.5h-244zM541 868h243q34 1 61.5 15t48.5 36.5t34.5 52t19.5 62.5q4 19 4 39q0 9 -1 17q-2 28 -12.5 52t-31 39t-53.5 15h-256z" />
<glyph unicode="C" horiz-adv-x="1110" d="M222 450v5q0 113 22 231q14 82 39 169.5t64 170.5t93.5 156.5t128.5 126.5q47 34 101.5 53.5t111.5 19.5h508l-33 -184h-426q-32 -5 -59 -18t-49.5 -32t-40.5 -41.5t-33 -45.5q-24 -36 -45 -79.5t-39 -92t-32 -100t-23 -103.5q-10 -54 -16 -122q-3 -37 -4 -73 q0 -31 3 -61q5 -66 23.5 -123.5t56.5 -91.5q17 -15 35 -23t43 -8h426l-28 -184h-510q-58 0 -104 19.5t-81.5 52t-60 75t-39.5 89.5q-32 99 -32 214z" />
<glyph unicode="D" horiz-adv-x="1247" d="M125 0l242 1382h604q57 0 103.5 -19t82 -51.5t60 -75.5t38.5 -91q31 -99 31 -215q0 -3 1 -5q0 -113 -21 -231q-16 -93 -43.5 -178.5t-67.5 -167.5q-40 -81 -92 -152t-123 -122q-46 -34 -99 -54t-110 -20h-606zM424 186h254q25 0 44 7t44 24q56 41 95.5 99.5t67 123.5 t44 131t26.5 123q14 78 17 153q1 16 1 32q0 57 -9 106q-5 37 -14.5 74t-26.5 67t-44 49.5t-67 22.5h-254z" />
<glyph unicode="E" horiz-adv-x="1079" d="M125 0l242 1382h913l-33 -184h-645l-57 -321h592l-33 -187h-592l-88 -504h645l-31 -186h-913z" />
<glyph unicode="F" horiz-adv-x="1057" d="M125 0l242 1382h913l-33 -184h-645l-57 -321h592l-33 -187h-592l-119 -690h-268z" />
<glyph unicode="G" horiz-adv-x="1192" d="M224 514q5 88 20 172q13 77 37.5 163.5t63.5 170.5t94 159t130 130q47 34 101.5 53.5t111.5 19.5h508l-33 -184h-426q-23 0 -44 -7.5t-44 -23.5q-51 -38 -89 -93t-66 -119.5t-46.5 -134t-29.5 -134.5q-9 -51 -16 -117q-4 -41 -4 -82q0 -25 2 -51q4 -67 22 -126t57 -95 q17 -15 35 -23t43 -8h201l90 512h-211l33 185h477l-151 -881h-549q-57 0 -106.5 19t-84.5 51q-53 51 -81.5 121.5t-38.5 152.5q-8 56 -8 114q0 28 2 56z" />
<glyph unicode="H" horiz-adv-x="1180" d="M125 0l242 1382h268l-90 -503h416l90 503h268l-242 -1382h-268l119 692h-416l-119 -692h-268z" />
<glyph unicode="I" horiz-adv-x="496" d="M125 0l242 1382h268l-242 -1382h-268z" />
<glyph unicode="J" horiz-adv-x="635" d="M43 0l29 184h94q25 0 51 12t48 33t38.5 49t22.5 60q3 15 12 68t22.5 129.5t29.5 169t33 186.5q39 221 87 491h266q-46 -262 -86 -485q-17 -95 -34 -191t-32 -180t-26.5 -149t-17.5 -98q-12 -67 -46.5 -119t-80 -87.5t-97.5 -54t-98 -18.5h-215z" />
<glyph unicode="K" horiz-adv-x="1073" d="M125 0l242 1382h268l-103 -571l476 571h280l-573 -661l338 -721h-283l-248 506l-53 -53l-76 -453h-268z" />
<glyph unicode="L" horiz-adv-x="1059" d="M125 0l242 1382h268l-211 -1196h645l-31 -186h-913z" />
<glyph unicode="M" horiz-adv-x="1448" d="M125 0l242 1382h268l149 -1081l535 1081h268l-241 -1382h-269l152 877l-424 -877h-139l-121 877l-152 -877h-268z" />
<glyph unicode="N" horiz-adv-x="1178" d="M125 0l242 1382h268l237 -1007l179 1007h266l-242 -1382h-272l-238 991l-172 -991h-268z" />
<glyph unicode="O" horiz-adv-x="1309" d="M224 449q0 7 -1 15q0 109 21 222q13 78 37.5 164.5t63.5 170t94 158.5t130 130q47 34 101.5 53.5t111.5 19.5h252q57 0 104 -19.5t81 -53.5q54 -53 83 -127q29 -72 39 -156q7 -56 7 -114q0 -30 -2 -58q-5 -88 -19 -168q-22 -121 -64.5 -237t-105.5 -213 q-31 -47 -70 -89.5t-85 -75t-98 -52t-109 -19.5h-256q-56 0 -101.5 18.5t-81.5 50t-61.5 74.5t-40.5 93q-28 97 -30 213zM492 436q4 -67 22.5 -126t58.5 -95q17 -15 35 -23t43 -8h88q39 0 73.5 20.5t64 51.5t52.5 68t40 71q31 65 54.5 139.5t37.5 151.5q9 52 13 104 q3 41 3 80v20q-1 48 -7 91.5t-17 79.5q-7 23 -17.5 45.5t-26 41.5t-37.5 32t-52 18h-89q-29 -2 -54.5 -14t-48.5 -31t-42.5 -42.5t-36.5 -49.5q-24 -36 -45 -79.5t-39 -92t-32 -100t-23 -103.5q-10 -51 -16 -117q-4 -39 -4 -78q0 -28 2 -55z" />
<glyph unicode="P" horiz-adv-x="1116" d="M125 0l242 1382h534q66 0 121.5 -21.5t93.5 -62.5q40 -40 61 -90t29 -104q4 -30 4 -60q0 -54 -12 -107q-18 -82 -55 -155q-32 -60 -76 -109t-95.5 -83.5t-108.5 -53t-115 -18.5h-269l-88 -518h-266zM512 702h186q36 0 67 12t56.5 32.5t46 47.5t35.5 58q23 50 29 100 q6 28 6 56q0 4 1 8q0 23 -3 45q-14 65 -52 101t-98 36h-186z" />
<glyph unicode="Q" horiz-adv-x="1286" d="M222 449v5q0 114 22 232q15 91 42.5 180t67.5 170q31 61 73.5 123t96.5 111.5t119 80.5t139 31h250q57 0 104 -19.5t83 -53.5q51 -51 78.5 -121t39.5 -152q8 -62 8 -129q0 -20 -1 -41q-3 -89 -19 -180q-22 -121 -63.5 -237t-106.5 -213q-6 -9 -15.5 -22.5t-19.5 -27 l-20 -27t-17 -22.5l113 -141h-231l-23 41q-70 -37 -149 -37h-254q-56 0 -101.5 18t-80.5 49.5t-61 75t-44 93.5q-29 97 -30 213zM493 534q-1 -21 -1 -41q0 -53 6 -100q9 -63 29 -109t44 -69q17 -15 35.5 -23t44.5 -8h168q9 0 18 1t17 3l-76 138l99 59l49 -63q11 17 20 35 t19 36q32 65 56 140.5t38 152.5q9 52 13 104q4 45 4 89v11q-1 48 -7 91.5t-16 79.5q-8 24 -19 47.5t-27.5 42.5t-38 32t-50.5 15h-87q-50 -4 -91.5 -32.5t-75 -72.5t-59 -98.5t-44.5 -110t-31.5 -107.5t-19.5 -91q-14 -77 -17 -152z" />
<glyph unicode="R" horiz-adv-x="1085" d="M125 0l242 1382h493q64 0 116.5 -20.5t92 -57t64 -88t32.5 -112.5q2 -24 2 -49q0 -50 -8 -101q-8 -43 -22 -86t-35 -84q-17 -33 -39 -66t-49.5 -62.5t-60.5 -54.5t-70 -42q-85 -41 -176 -41h-9l306 -518h-232l-295 502l-86 -502h-266zM512 702h145q31 0 61 11.5 t56.5 31.5t49 48t38.5 61q23 52 31 104q5 30 5 60q0 23 -3 45q-6 28 -17.5 52.5t-30 43t-44 29t-58.5 10.5h-145z" />
<glyph unicode="S" horiz-adv-x="1217" d="M152 0l28 184h502q33 0 64 9.5t57.5 27t48 42t35.5 54.5q25 45 31 91q2 19 2 37q0 26 -5 51q-11 57 -54.5 87.5t-102.5 30.5h-170q-90 0 -160 39t-104 113q-23 40 -30 88q-4 28 -4 58q0 21 2 41q5 50 20.5 100t39.5 94q38 69 93 119.5t118 81.5q37 17 78.5 25.5t83.5 8.5 h479l-33 -184h-397q-30 0 -57.5 -10t-50.5 -27t-42 -40t-32 -48q-22 -43 -29 -87q-3 -19 -3 -37q0 -23 5 -42q11 -55 48 -81.5t89 -26.5h170q65 0 122 -19.5t98 -56.5q40 -35 62 -81.5t30 -98.5q5 -34 5 -66q0 -47 -10 -91q-17 -76 -55 -144q-68 -113 -168.5 -177.5 t-218.5 -64.5h-585z" />
<glyph unicode="T" horiz-adv-x="995" d="M231 1198l33 184h955l-33 -184h-344l-209 -1198h-266l208 1198h-344z" />
<glyph unicode="U" horiz-adv-x="1219" d="M202 352q-1 17 0 35q0 31 2 63q4 49 13 95l150 837h266l-150 -837q-7 -43 -10 -83q-2 -20 -1.5 -39.5t1.5 -38.5q3 -38 14 -71.5t33 -60.5q32 -38 80 -50q26 -7 53 -6q23 0 47 4q52 10 100.5 45t80.5 93q26 51 40.5 105.5t22.5 101.5l150 837h266l-150 -837 q-5 -26 -11.5 -60.5t-18.5 -76.5q-20 -69 -57.5 -133.5t-88 -116.5t-113 -89.5t-133.5 -52.5q-34 -8 -79.5 -12t-85.5 -4q-59 0 -115.5 8.5t-105 29t-88 53.5t-64.5 81q-23 40 -34.5 86t-13.5 94z" />
<glyph unicode="V" horiz-adv-x="1296" d="M264 1382h281l164 -1040l530 1040h281l-775 -1382h-190z" />
<glyph unicode="W" horiz-adv-x="1853" d="M262 1380h281l145 -1038l270 412l-141 626h201l266 -1038l508 1038h283l-754 -1380h-188l-119 508l-289 -508h-190z" />
<glyph unicode="X" horiz-adv-x="1233" d="M41 0l594 719l-313 663h288l170 -421l326 421h289l-553 -663l350 -719h-289l-207 481l-366 -481h-289z" />
<glyph unicode="Y" horiz-adv-x="1270" d="M264 1382h303l226 -483l397 483h303l-614 -751l-109 -631h-266l108 635z" />
<glyph unicode="Z" horiz-adv-x="1133" d="M125 0l33 186l794 1012h-618l33 184h925l-32 -184l-797 -1012h618l-30 -186h-926z" />
<glyph unicode="[" horiz-adv-x="394" />
<glyph unicode="\" horiz-adv-x="1075" d="M-51 -410l28 142h1029l-25 -142h-1032z" />
<glyph unicode="]" horiz-adv-x="325" />
<glyph unicode="_" horiz-adv-x="1075" d="M-51 -410l28 142h1029l-25 -142h-1032z" />
<glyph unicode="a" horiz-adv-x="1143" d="M150 203q-1 17 -1 34q0 38 7 74q9 50 31.5 99.5t64.5 93.5q19 22 44 40.5t53.5 31.5t59 20t62.5 6h416q1 19 0 40t-5 41t-11 37.5t-19 29.5q-6 6 -9 7t-9 1h-476l33 184h557q42 0 73.5 -14.5t55 -38.5t39.5 -55t27 -64q15 -64 15 -139q0 -80 -15 -160q-9 -54 -25.5 -113 t-41.5 -115t-60 -105t-82 -83q-32 -24 -70 -39.5t-80 -15.5h-419q-63 0 -112.5 29.5t-72.5 72.5q-26 45 -30 101zM420 261q3 -24 12 -38t18.5 -20t30.5 -6h252q6 0 10.5 1t14.5 7q24 17 42 43.5t30.5 56.5t20.5 60t13 53h-344q-23 0 -35 -6t-26 -19q-11 -14 -21.5 -35.5 t-15.5 -46.5q-3 -16 -3 -32q0 -9 1 -18z" />
<glyph unicode="b" horiz-adv-x="1118" d="M104 0l254 1454h267l-93 -514h390q41 0 73 -14.5t56 -38.5t40 -55t27 -64q15 -62 15 -134v-8q-1 -76 -15 -155q-8 -45 -22.5 -97.5t-36 -104.5t-50.5 -101t-66.5 -86t-83 -59.5t-99.5 -22.5h-656zM401 195h308q23 3 42 21t34 44t26.5 57t19.5 60.5t13 54.5t8 39 q2 15 5.5 42t5.5 59q2 26 2 52q-1 6 -1 12q0 32 -6 59t-17.5 44t-31.5 17h-307z" />
<glyph unicode="c" horiz-adv-x="1020" d="M170 316q0 80 14 157q11 59 28 116t42 111q21 45 50.5 88.5t66.5 77.5t81 55t95 21h557l-33 -184h-475q-18 0 -35 -18t-32.5 -46t-29 -62t-23.5 -66t-16.5 -57t-8.5 -36q-6 -32 -11 -76q-4 -31 -4 -62q0 -12 1 -25q2 -43 14.5 -78t42.5 -48h473l-29 -184h-557 q-41 0 -73 14.5t-56 38.5t-41 54.5t-27 62.5q-15 63 -15 140q1 3 1 6z" />
<glyph unicode="d" d="M152 374q4 52 12 97q14 78 40 154.5t66 142.5q22 33 49 64t58.5 55t68.5 38.5t78 14.5h389l93 514h266l-254 -1454h-656q-54 0 -92 22.5t-62.5 59.5t-37.5 86t-17 101q-2 28 -2 56q-1 25 1 49zM416 317q0 -31 6 -57t18.5 -44t34.5 -21h307l101 561h-308q-20 0 -37.5 -17 t-33 -43.5t-28 -59t-22 -64.5t-16 -59t-8.5 -42q-2 -14 -6 -39q-4 -24 -6 -54q-2 -25 -2 -51v-10z" />
<glyph unicode="e" horiz-adv-x="1143" d="M170 322q2 82 16 161q10 55 26.5 112.5t41 111t59 100.5t80.5 82q32 25 72 39t82 14h416q63 -4 107.5 -30t70.5 -67q27 -41 35 -93q4 -24 3 -49q0 -29 -5 -60q-10 -51 -32.5 -100t-64.5 -94q-38 -44 -96 -71.5t-123 -27.5h-416q0 -21 1 -46t6 -49t15.5 -43t29.5 -28h489 l-29 -184h-573q-41 0 -73 15t-56 39.5t-41 56t-27 63.5q-14 60 -14 134v14zM465 535h344q23 2 34.5 8t26.5 18q11 13 21.5 35t15.5 47q3 16 3 32q0 9 -1 17q-3 24 -12 39q-9 14 -18 20.5t-31 6.5h-252q-8 0 -11.5 -1.5t-13.5 -6.5q-24 -17 -42 -44t-30.5 -57t-20.5 -60 t-13 -54z" />
<glyph unicode="f" horiz-adv-x="590" d="M158 0q10 63 25.5 155.5t33.5 196.5t37 211t35 199h-115l33 184h115q0 1 2 12t4 24t4 23.5t2 12.5q10 56 27.5 116.5t49 116t79.5 101t118 71.5q44 17 92.5 24t102.5 7l-33 -188q-38 0 -66.5 -24t-49.5 -61t-34 -80.5t-20 -82.5q0 -2 -2 -12.5t-4 -23.5t-4 -24t-2 -12 h117l-33 -184h-117q-16 -92 -35 -199t-37 -211t-33.5 -196.5t-25.5 -155.5h-266z" />
<glyph unicode="g" horiz-adv-x="1118" d="M156 -471l32 184h334q69 0 122.5 29.5t84.5 107.5q11 26 21.5 67t21.5 83h-389h-9q-39 0 -70 16q-33 17 -58 41q-23 25 -36.5 55t-23.5 62q-8 33 -11.5 70.5t-3.5 77t4 80t11 79.5q7 41 21.5 91t36 101.5t51 99.5t67 85.5t84 60.5t101.5 23h655l-168 -948 q-6 -38 -17.5 -81t-21.5 -75q-25 -71 -66 -128.5t-95 -97.5t-120.5 -61.5t-142.5 -21.5h-415zM440 337q0 -23 2 -42q3 -38 13.5 -64.5t19.5 -35.5q9 -7 12.5 -8t8.5 -1h307l100 570h-307q-6 0 -10.5 -1t-14.5 -7q-8 -7 -19 -19.5t-24 -32.5q-24 -38 -44 -95.5t-31 -119.5 q-4 -23 -7 -47.5t-4.5 -49t-1.5 -47.5z" />
<glyph unicode="h" d="M104 0l254 1454h267l-93 -518h390q42 0 76 -15.5t57 -39.5q36 -38 53.5 -89t22.5 -107q3 -29 2 -59q1 -27 -1 -54q-4 -57 -14 -107q-6 -35 -13 -73t-13.5 -77.5t-13 -78t-12.5 -73.5q-14 -82 -28 -163h-266q19 118 36 215l14 82t13 75.5t10.5 59t6.5 33.5q2 15 4 41 q2 27 4 58q1 19 1 38v26q-1 33 -6.5 60t-17 44.5t-30.5 19.5h-307l-129 -752h-267z" />
<glyph unicode="i" horiz-adv-x="473" d="M104 0l164 942h267l-164 -942h-267zM317 1225l41 229h267l-41 -229h-267z" />
<glyph unicode="j" horiz-adv-x="465" d="M-266 -471l33 184h104q60 0 98 21t61.5 58t36.5 87t23 109l35 184l137 774h266l-170 -966q-15 -86 -50.5 -167t-92 -144t-135 -101.5t-178.5 -38.5h-168zM311 1225l41 229h266l-40 -229h-267z" />
<glyph unicode="k" horiz-adv-x="1051" d="M104 0l254 1454h267l-138 -770l261 254h301l-478 -414l439 -524h-303l-232 322l-59 -50l-45 -272h-267z" />
<glyph unicode="l" horiz-adv-x="473" d="M104 0l254 1454h267l-254 -1454h-267z" />
<glyph unicode="m" horiz-adv-x="1708" d="M104 0l164 942h574q50 0 92 -22l4 22h573q56 0 94.5 -22t63 -59.5t36.5 -86t15 -100.5l2 -42q0 -31 -4 -63q-4 -53 -12 -98l-80 -471h-266l80 471q4 31 10 69q5 35 6 71v6q0 39 -9.5 73.5t-31.5 57.5q-6 8 -9.5 9t-8.5 1h-267l-131 -758h-268l80 471q5 31 11 69 q5 35 5 71q-1 3 -1 6q0 39 -9 73.5t-31 57.5q-6 8 -9 9t-9 1h-266l-131 -758h-267z" />
<glyph unicode="n" d="M104 0l164 942h656q42 0 75 -16t58 -41q36 -39 53.5 -89.5t22.5 -105.5q2 -26 3 -53q0 -29 -4 -59q-6 -56 -14 -107l-80 -471h-266l80 471q6 31 10 71q4 36 4 71v7q0 38 -9 72.5t-30 55.5q-6 6 -9.5 7t-8.5 1h-307l-131 -756h-267z" />
<glyph unicode="o" horiz-adv-x="1141" d="M169 314q1 80 15 157q9 51 25 108t41 112.5t60.5 105.5t84.5 88q29 25 69.5 41t82.5 16h399q42 0 75.5 -16t57.5 -41q32 -36 49 -85q18 -50 24 -104q4 -34 4 -70q0 -21 -2 -42q-4 -58 -13 -113q-14 -77 -41.5 -157.5t-65.5 -145.5q-21 -32 -47.5 -62.5t-58 -54t-68 -37.5 t-76.5 -14h-403q-38 0 -70 13.5t-57 36t-42 53t-26 65.5q-17 62 -17 137v9zM440 312q1 -32 6.5 -59t17 -45.5t30.5 -23.5h235q19 1 36.5 18.5t32.5 45t28 60.5t23 64.5t16 58t9 40.5q11 63 12 122v8q0 54 -12 93q-2 7 -5 17t-8 19.5t-12.5 16.5t-17.5 9h-235q-9 0 -18.5 -6 t-18.5 -15.5t-17 -20.5t-14 -20q-23 -42 -44.5 -101t-32.5 -122q-3 -15 -6 -41t-5 -56q-1 -18 0 -37v-25z" />
<glyph unicode="p" d="M20 -471l248 1413h658q40 0 72 -14t56 -38t40 -54.5t24 -63.5q19 -63 19 -135q0 -75 -15 -156q-8 -45 -22.5 -98t-36.5 -106.5t-51 -103.5t-66.5 -88.5t-83 -61.5t-100.5 -23h-391l-86 -471h-265zM399 184h310q10 0 20 7.5t18.5 18t15.5 21.5t11 17q12 20 24.5 47.5 t23.5 58.5t20 63.5t14 63.5q8 47 10 91q1 15 1 29q0 27 -3 52q-2 15 -5 31.5t-9 31t-15 25.5t-24 17h-309z" />
<glyph unicode="q" d="M154 276q-2 25 -2 50q0 29 2 57q4 53 12 98q14 78 40 152t66 139q20 33 47.5 63.5t60 54.5t69.5 38t77 14h658l-250 -1413h-266l86 471h-392q-55 0 -93 23t-62.5 61.5t-37 88.5t-15.5 103zM421 354q0 -31 2.5 -58.5t8.5 -47.5q1 -6 3.5 -17t7.5 -21.5t12.5 -18t17.5 -7.5 h309l103 574h-310q-16 -6 -29.5 -17t-24.5 -25.5t-20 -31t-16 -31.5q-17 -37 -31 -81t-22 -91q-5 -31 -8 -63.5t-3 -63.5z" />
<glyph unicode="r" horiz-adv-x="831" d="M104 0l164 942h453q53 0 90 -23.5t61.5 -61.5t38 -86t19.5 -97h-275l-5 22.5t-8.5 26t-14 22t-21.5 11.5h-104l-131 -756h-267z" />
<glyph unicode="s" horiz-adv-x="1055" d="M145 0l29 184h500q18 0 32.5 11t24.5 26.5t16.5 33.5t8.5 32q3 15 2.5 32.5t-5.5 32t-15 24t-27 9.5h-320q-63 0 -110 33q-26 20 -41 46q-14 27 -22 58q-7 29 -8 60q0 34 7 69q11 66 41.5 125.5t81.5 106.5q34 28 73 43.5t76 15.5h560l-33 -184h-477q-9 -3 -19 -17.5 t-19 -35.5t-15.5 -45t-7 -44t5.5 -33.5t22 -13.5h319q43 0 78 -14.5t60.5 -40t41 -59.5t19.5 -72q5 -23 4 -47.5t-6 -48.5q-7 -40 -22.5 -78.5t-38.5 -72.5t-53 -62t-66 -47q-28 -13 -56 -20t-57 -7h-584z" />
<glyph unicode="t" horiz-adv-x="662" d="M172 754l33 184h157q1 1 5 23.5t10.5 58.5t14.5 82t16.5 94t17 94t14.5 82t10.5 58.5t4.5 23.5h266q0 -1 -4.5 -23.5t-10.5 -58.5t-14.5 -82t-16.5 -94t-16.5 -94t-14.5 -82t-10.5 -58.5t-4.5 -23.5h155l-32 -184h-156q-16 -92 -34.5 -198t-36 -208.5t-33 -193.5 t-25.5 -154h-266q10 63 25 154t33 193.5t36.5 208.5t34.5 198h-158z" />
<glyph unicode="u" d="M174 384q3 50 10 91l84 467h267l-84 -467q-3 -15 -6 -42t-4 -59q-1 -16 -1 -33t1 -33q2 -34 7 -61.5t16 -45t30 -17.5h307l135 758h266l-164 -942h-655q-56 0 -94 24t-62.5 63.5t-36.5 90t-16 103.5q-2 29 -1 56q0 24 1 47z" />
<glyph unicode="v" horiz-adv-x="1155" d="M186 942h285l152 -684l393 684h284l-600 -942h-241z" />
<glyph unicode="w" horiz-adv-x="1700" d="M186 942h285l131 -684l248 330l-100 354h202l234 -684l373 684h286l-581 -942h-242l-109 371l-233 -371h-242z" />
<glyph unicode="x" horiz-adv-x="1061" d="M41 0l461 487l-275 455h303l123 -231l205 231h303l-438 -455l297 -487h-303l-144 262l-229 -262h-303z" />
<glyph unicode="y" d="M156 -471l32 184h332q69 0 123.5 29.5t85.5 107.5q4 12 9.5 30.5t10.5 39t10 42t9 40.5h-387q-54 0 -92 23t-62.5 61t-37 87t-15.5 101q-2 29 -2 57q0 24 1 47q3 52 11 95q6 35 13 73.5t14 78t14 78.5t13 74q15 83 30 165h267q-21 -118 -39 -216q-8 -42 -15 -83 t-13.5 -76t-11 -60t-5.5 -34q-3 -17 -6.5 -42.5t-5 -54.5t0 -59.5t7.5 -56.5t17.5 -46t31.5 -28h307l133 756l266 -2l-164 -938l-43 -164q-14 -37 -30.5 -70.5t-36.5 -64.5q-32 -45 -72 -77.5t-86 -54t-97 -32t-104 -10.5h-413z" />
<glyph unicode="z" horiz-adv-x="1055" d="M104 0l31 184l619 574h-518l32 184h869l-33 -186l-621 -572h518l-28 -184h-869z" />
<glyph unicode="|" horiz-adv-x="0" d="M-162 0l15 164l55 617l44 479l14 164h164l-15 -164l-100 -1096l-15 -164h-162z" />
<glyph unicode="&#xa9;" horiz-adv-x="3997" d="M221 560q0 111 42.5 209.5t115.5 172t171.5 116t209.5 42.5q96 0 181.5 -31.5t154.5 -87.5t117.5 -132.5t69.5 -165.5q23 16 50 23t56 7q42 0 59.5 -13.5t17.5 -33.5v-8l51 229l144 17l-114 -527q0 -10 -2.5 -18.5t-2.5 -15.5q0 -19 11.5 -26.5t31.5 -7.5q23 0 39 14 t29 37v9q0 28 5.5 65t18.5 76t33 76t49.5 66t68 47t88.5 18q32 0 52.5 -7.5t32.5 -20t17 -29.5t5 -36q0 -43 -18.5 -80t-50 -64.5t-72 -44.5t-85.5 -20v-38q0 -48 16.5 -64.5t51.5 -16.5q48 0 82 18t63 50q6 23 20.5 40.5t30.5 23.5q42 74 69 147t50 146l144 17 q5 -94 9 -152t7 -95t4.5 -61t1.5 -49q0 -9 -0.5 -18t-4.5 -16q23 10 41.5 23.5t31.5 23.5l68 315h140l-72 -332q0 -10 -2.5 -18.5t-2.5 -15.5q0 -19 10 -26.5t33 -7.5t43 14.5t33 40.5v9q0 33 7 71t20.5 76t34 72.5t48.5 61.5t63 43t78 16q42 0 59.5 -13.5t17.5 -33.5v-8 l12 51h141l-98 -455q44 16 74 46t49 94l68 315h140l-8 -51q29 35 60.5 45t54.5 10q45 0 75.5 -26.5t30.5 -84.5q0 -30 -7.5 -65.5t-16 -70t-16 -65t-7.5 -49.5q0 -20 10 -31.5t33 -11.5q9 0 17.5 0.5t11.5 3.5q-6 -51 -37 -76.5t-69 -25.5q-29 0 -48.5 10t-31.5 26.5t-17 37 t-5 41.5q0 24 7.5 56.5t16 67t16 67t7.5 56.5q0 51 -38 51q-26 0 -44.5 -27.5t-28.5 -62.5l-68 -314h-140l9 51q-26 -26 -53.5 -39.5t-53.5 -20.5l-12 -72q-11 -53 -31 -85.5t-44.5 -50.5t-51.5 -24t-52 -6q-45 0 -75.5 25t-30.5 73q0 30 14.5 53.5t37 41t50.5 30t55 20.5 l13 51q-23 -23 -52 -39.5t-67 -16.5t-72 21.5t-47 72.5q-21 -30 -43 -48.5t-44 -28.5t-41 -13.5t-34 -3.5q-45 0 -75.5 29.5t-30.5 89.5v17q-26 -26 -51 -43t-51 -33q-14 -16 -32.5 -27.5t-39 -18.5t-41.5 -10.5t-40 -3.5q-32 0 -56 9t-41 23t-27.5 32.5t-15.5 37.5 q-38 -45 -88 -73.5t-120 -28.5q-51 0 -87.5 23t-53.5 71q-19 -29 -40 -46t-41 -25.5t-38.5 -11t-33.5 -2.5q-38 0 -64.5 21.5t-32.5 63.5q-10 -18 -23.5 -34.5t-31.5 -30t-40.5 -21.5t-49.5 -8q-40 0 -72 26q-38 -50 -86 -90t-103.5 -68t-117 -43.5t-127.5 -15.5 q-111 0 -209.5 42.5t-171.5 116t-115.5 171.5t-42.5 210zM357 220h140l68 319q1 9 8 23.5t17.5 28t23.5 23.5t27 10q34 0 34 -51q0 -24 -6.5 -56.5t-14.5 -67t-14.5 -67t-6.5 -56.5q0 -21 6 -41.5t19.5 -37t35.5 -26.5t54 -10q14 0 30.5 3t34 12.5t35.5 26t36 43.5 q9 -45 36.5 -65t65.5 -20q14 0 33.5 3.5t41 13.5t43.5 28.5t43 48.5q-6 13 -7 28t-1 31q-13 -26 -33.5 -40.5t-43.5 -14.5t-30.5 7.5t-7.5 26.5v34l64 293h97l9 39h-98l34 153l-144 -17l-30 -136h-72l-5 -39h68l-59 -276q-16 -38 -32.5 -61.5t-48.5 -23.5q-23 0 -30.5 11.5 t-7.5 31.5q0 19 7.5 49.5t16 65t16 70t7.5 65.5q0 58 -31.5 84.5t-79.5 26.5q-23 0 -53 -10t-62 -45l51 246l-144 -17zM1283 386q0 -29 5 -44.5t12 -23t15.5 -8.5t14.5 -1q23 0 47 19.5t34 61.5v4l46 225q0 10 -7.5 22t-30.5 12q-30 0 -55 -29t-43 -71t-28 -88t-10 -79z M1806 466q28 2 53.5 15.5t45 35t30.5 49.5t11 58q0 19 -4 30.5t-17 11.5q-19 0 -37 -18t-33.5 -46.5t-28 -64.5t-20.5 -71zM2061 360q0 -35 13.5 -51.5t45.5 -16.5q16 0 31.5 4.5t27.5 14.5t19 27t7 43q0 19 -1.5 36.5t-3.5 42t-5.5 61.5t-6.5 94q-16 -48 -35 -93.5 t-45 -93.5q9 -3 15 -12t6 -22q0 -16 -11.5 -31.5t-31.5 -15.5q-6 0 -14 3.5t-11 9.5zM2494 857q0 35 25 58t60 23q32 0 56.5 -23t24.5 -58q0 -17 -6.5 -32.5t-18 -27t-26 -18.5t-30.5 -7q-35 0 -60 25t-25 60zM2792 84q0 -10 9 -22t25 -12t30.5 22t24.5 67l9 30 q-19 -8 -37 -17t-31.5 -19.5t-21.5 -22.5t-8 -26zM2809 386q0 -29 5 -44.5t12 -23t15.5 -8.5t14.5 -1q19 0 43 19.5t37 57.5l47 229q0 10 -8 24t-30 14q-32 0 -57 -29t-42.5 -71t-27 -88t-9.5 -79z" />
<glyph unicode="&#xab;" horiz-adv-x="802" d="M-115 515l302 558h550h163l-258 -558l161 -515h-757zM58 515l110 -351h118l-110 351l212 394h-119zM350 515l110 -351h118l-110 351l212 394h-116z" />
<glyph unicode="&#xad;" horiz-adv-x="654" d="M-129 363l47 524h164h489h164l-48 -524h-164h-488h-164zM50 527h488l18 196h-489z" />
<glyph unicode="&#xb7;" horiz-adv-x="582" d="M75 250q0 30 11.5 57t32 47.5t47.5 32t58 11.5t58 -11.5t47.5 -32t32 -47.5t11.5 -57q0 -31 -11.5 -58t-32 -47.5t-47.5 -32t-58 -11.5t-58 11.5t-47.5 32t-32 47.5t-11.5 58z" />
<glyph unicode="&#xbb;" horiz-adv-x="803" d="M-162 0l258 557l-162 516h758l161 -516l-303 -557h-550h-162zM58 164h116l213 393l-109 352h-118l109 -352zM350 164h119l210 393l-109 352h-118l110 -352z" />
<glyph unicode="&#xd7;" horiz-adv-x="702" d="M-153 101l20 220l218 326l-159 326l16 186h367l50 -102l68 102h382l-21 -226l-213 -320l155 -319l-18 -193h-362l-50 102l-68 -102h-385zM27 265h118l178 266l129 -266h110l-176 361l247 369h-119l-178 -267l-129 267h-110l176 -361z" />
<glyph unicode="&#xf7;" horiz-adv-x="653" d="M-123 461l40 426h164h489h164l-40 -426h-164h-489h-164zM57 625h488l10 99h-489zM118 252q0 31 11.5 58t32 47t47.5 31.5t58 11.5t58 -11.5t47 -31.5t32 -47t12 -58t-12 -58t-32 -47.5t-47 -32t-58 -11.5t-58 11.5t-47.5 32t-32 47.5t-11.5 58zM196 1097q0 31 11.5 58 t32 47t47.5 32t58 12t58 -12t47 -32t31.5 -47t11.5 -58t-11.5 -58t-31.5 -47t-47 -31.5t-58 -11.5t-58 11.5t-47.5 31.5t-32 47t-11.5 58z" />
<glyph unicode="&#x2000;" horiz-adv-x="971" />
<glyph unicode="&#x2001;" horiz-adv-x="1943" />
<glyph unicode="&#x2002;" horiz-adv-x="971" />
<glyph unicode="&#x2003;" horiz-adv-x="1943" />
<glyph unicode="&#x2004;" horiz-adv-x="647" />
<glyph unicode="&#x2005;" horiz-adv-x="485" />
<glyph unicode="&#x2006;" horiz-adv-x="323" />
<glyph unicode="&#x2007;" horiz-adv-x="323" />
<glyph unicode="&#x2008;" horiz-adv-x="242" />
<glyph unicode="&#x2009;" horiz-adv-x="388" />
<glyph unicode="&#x200a;" horiz-adv-x="107" />
<glyph unicode="&#x2010;" horiz-adv-x="654" d="M-129 363l47 524h164h489h164l-48 -524h-164h-488h-164zM50 527h488l18 196h-489z" />
<glyph unicode="&#x2011;" horiz-adv-x="654" d="M-129 363l47 524h164h489h164l-48 -524h-164h-488h-164zM50 527h488l18 196h-489z" />
<glyph unicode="&#x2012;" horiz-adv-x="654" d="M-129 363l47 524h164h489h164l-48 -524h-164h-488h-164zM50 527h488l18 196h-489z" />
<glyph unicode="&#x2013;" horiz-adv-x="814" d="M-129 363l56 524h194h580h194l-57 -524h-194h-579h-194zM83 527h579l21 196h-580z" />
<glyph unicode="&#x2014;" horiz-adv-x="1838" d="M-129 363l111 524h389h1159h389l-114 -524h-389h-1156h-389zM295 527h1157l43 196h-1159z" />
<glyph unicode="&#x2018;" horiz-adv-x="518" d="M206 1632q0 43 17 89t44 87.5t59.5 76.5t63.5 58h117q-26 -27 -47 -62.5t-30.5 -72t-3.5 -72.5t34 -65q14 -14 23.5 -23t15.5 -16.5t8.5 -14.5t2.5 -16q0 -26 -12.5 -50t-34.5 -42t-51 -28.5t-62 -10.5q-38 0 -65 14t-44.5 36.5t-26 52t-8.5 59.5z" />
<glyph unicode="&#x2019;" horiz-adv-x="518" d="M207 1812q0 26 12.5 50t34.5 42t51 28.5t62 10.5q38 0 65 -14t44.5 -36.5t26 -52t8.5 -59.5q0 -44 -17 -89.5t-44 -87t-59.5 -77t-63.5 -57.5h-117q26 27 47 62.5t30.5 72t3.5 72.5t-34 65q-14 13 -23.5 22.5t-15.5 17t-8.5 14.5t-2.5 16z" />
<glyph unicode="&#x201c;" horiz-adv-x="800" d="M206 1632q0 43 17 89t44 87.5t59.5 76.5t63.5 58h117q-26 -27 -47 -62.5t-30.5 -72t-3.5 -72.5t34 -65q8 -8 14 -13t11 -10q3 42 21 85.5t44 83t57 72.5t61 54h117q-26 -27 -47 -62.5t-30.5 -72t-3.5 -72.5t34 -65q14 -14 23.5 -23t15.5 -16.5t8.5 -14.5t2.5 -16 q0 -26 -12.5 -50t-34.5 -42t-51 -28.5t-62 -10.5q-51 0 -82 24t-47 60q-17 -36 -57 -60t-92 -24q-38 0 -65 14t-44.5 36.5t-26 52t-8.5 59.5z" />
<glyph unicode="&#x201d;" horiz-adv-x="800" d="M207 1812q0 26 12.5 50t34.5 42t51 28.5t62 10.5q51 0 82 -24t47 -60q17 36 57 60t92 24q38 0 65 -14t44.5 -36.5t26 -52t8.5 -59.5q0 -44 -17 -89.5t-44 -87t-59.5 -77t-63.5 -57.5h-117q26 27 47 62.5t30.5 72t3.5 72.5t-34 65q-8 8 -14 13t-11 10q-3 -42 -21 -85.5 t-44 -83t-57 -72.5t-61 -54h-117q26 27 47 62.5t30.5 72t3.5 72.5t-34 65q-14 13 -23.5 22.5t-15.5 17t-8.5 14.5t-2.5 16z" />
<glyph unicode="&#x202f;" horiz-adv-x="388" />
<glyph unicode="&#x205f;" horiz-adv-x="485" />
<glyph unicode="&#x25fc;" horiz-adv-x="940" d="M0 0v940h940v-940h-940z" />
</font>
</defs>
</svg>
